<mxfile host="app.diagrams.net" modified="2024-02-13T11:43:04.562Z" agent="Mozilla/5.0 (Macintosh; Intel Mac OS X 10_15_7) AppleWebKit/537.36 (KHTML, like Gecko) Chrome/121.0.0.0 Safari/537.36" etag="pYwiFGLi8nOPNsCl6WWn" version="23.1.3" type="github">
  <diagram id="C5RBs43oDa-KdzZeNtuy" name="Page-1">
    <mxGraphModel dx="5597" dy="3050" grid="1" gridSize="10" guides="1" tooltips="1" connect="1" arrows="1" fold="1" page="1" pageScale="1" pageWidth="827" pageHeight="1169" math="0" shadow="0">
      <root>
        <mxCell id="WIyWlLk6GJQsqaUBKTNV-0" />
        <mxCell id="WIyWlLk6GJQsqaUBKTNV-1" parent="WIyWlLk6GJQsqaUBKTNV-0" />
        <mxCell id="4Akdkflnh7Jsl9hj940S-2" value="" style="edgeStyle=orthogonalEdgeStyle;rounded=0;orthogonalLoop=1;jettySize=auto;html=1;" edge="1" parent="WIyWlLk6GJQsqaUBKTNV-1" source="4Akdkflnh7Jsl9hj940S-0" target="4Akdkflnh7Jsl9hj940S-1">
          <mxGeometry relative="1" as="geometry" />
        </mxCell>
        <mxCell id="4Akdkflnh7Jsl9hj940S-0" value="Start" style="ellipse;whiteSpace=wrap;html=1;aspect=fixed;" vertex="1" parent="WIyWlLk6GJQsqaUBKTNV-1">
          <mxGeometry x="350" y="50" width="80" height="80" as="geometry" />
        </mxCell>
        <mxCell id="4Akdkflnh7Jsl9hj940S-4" value="" style="edgeStyle=orthogonalEdgeStyle;rounded=0;orthogonalLoop=1;jettySize=auto;html=1;" edge="1" parent="WIyWlLk6GJQsqaUBKTNV-1" source="4Akdkflnh7Jsl9hj940S-1" target="4Akdkflnh7Jsl9hj940S-3">
          <mxGeometry relative="1" as="geometry" />
        </mxCell>
        <mxCell id="4Akdkflnh7Jsl9hj940S-1" value="Upload excell file" style="shape=document;whiteSpace=wrap;html=1;boundedLbl=1;" vertex="1" parent="WIyWlLk6GJQsqaUBKTNV-1">
          <mxGeometry x="330" y="210" width="120" height="80" as="geometry" />
        </mxCell>
        <mxCell id="4Akdkflnh7Jsl9hj940S-6" value="" style="edgeStyle=orthogonalEdgeStyle;rounded=0;orthogonalLoop=1;jettySize=auto;html=1;" edge="1" parent="WIyWlLk6GJQsqaUBKTNV-1" source="4Akdkflnh7Jsl9hj940S-3" target="4Akdkflnh7Jsl9hj940S-5">
          <mxGeometry relative="1" as="geometry" />
        </mxCell>
        <mxCell id="4Akdkflnh7Jsl9hj940S-3" value="Parse excell file" style="whiteSpace=wrap;html=1;" vertex="1" parent="WIyWlLk6GJQsqaUBKTNV-1">
          <mxGeometry x="330" y="380" width="120" height="60" as="geometry" />
        </mxCell>
        <mxCell id="4Akdkflnh7Jsl9hj940S-52" style="edgeStyle=orthogonalEdgeStyle;rounded=0;orthogonalLoop=1;jettySize=auto;html=1;" edge="1" parent="WIyWlLk6GJQsqaUBKTNV-1" source="4Akdkflnh7Jsl9hj940S-5" target="4Akdkflnh7Jsl9hj940S-47">
          <mxGeometry relative="1" as="geometry" />
        </mxCell>
        <mxCell id="4Akdkflnh7Jsl9hj940S-5" value="write data to table A" style="whiteSpace=wrap;html=1;" vertex="1" parent="WIyWlLk6GJQsqaUBKTNV-1">
          <mxGeometry x="330" y="520" width="120" height="60" as="geometry" />
        </mxCell>
        <mxCell id="4Akdkflnh7Jsl9hj940S-64" style="edgeStyle=orthogonalEdgeStyle;rounded=0;orthogonalLoop=1;jettySize=auto;html=1;entryX=0.5;entryY=0;entryDx=0;entryDy=0;" edge="1" parent="WIyWlLk6GJQsqaUBKTNV-1" source="4Akdkflnh7Jsl9hj940S-7" target="4Akdkflnh7Jsl9hj940S-61">
          <mxGeometry relative="1" as="geometry" />
        </mxCell>
        <mxCell id="4Akdkflnh7Jsl9hj940S-66" value="" style="edgeStyle=orthogonalEdgeStyle;rounded=0;orthogonalLoop=1;jettySize=auto;html=1;" edge="1" parent="WIyWlLk6GJQsqaUBKTNV-1" source="4Akdkflnh7Jsl9hj940S-7" target="4Akdkflnh7Jsl9hj940S-65">
          <mxGeometry relative="1" as="geometry" />
        </mxCell>
        <mxCell id="4Akdkflnh7Jsl9hj940S-7" value="Write one deposit base data to table B" style="whiteSpace=wrap;html=1;" vertex="1" parent="WIyWlLk6GJQsqaUBKTNV-1">
          <mxGeometry x="330" y="870" width="120" height="60" as="geometry" />
        </mxCell>
        <mxCell id="4Akdkflnh7Jsl9hj940S-48" style="edgeStyle=orthogonalEdgeStyle;rounded=0;orthogonalLoop=1;jettySize=auto;html=1;" edge="1" parent="WIyWlLk6GJQsqaUBKTNV-1" source="4Akdkflnh7Jsl9hj940S-47" target="4Akdkflnh7Jsl9hj940S-7">
          <mxGeometry relative="1" as="geometry" />
        </mxCell>
        <mxCell id="4Akdkflnh7Jsl9hj940S-53" value="Yes" style="edgeLabel;html=1;align=center;verticalAlign=middle;resizable=0;points=[];" vertex="1" connectable="0" parent="4Akdkflnh7Jsl9hj940S-48">
          <mxGeometry x="-0.12" y="1" relative="1" as="geometry">
            <mxPoint as="offset" />
          </mxGeometry>
        </mxCell>
        <mxCell id="4Akdkflnh7Jsl9hj940S-72" style="edgeStyle=orthogonalEdgeStyle;rounded=0;orthogonalLoop=1;jettySize=auto;html=1;entryX=1;entryY=0.5;entryDx=0;entryDy=0;" edge="1" parent="WIyWlLk6GJQsqaUBKTNV-1" source="4Akdkflnh7Jsl9hj940S-47" target="4Akdkflnh7Jsl9hj940S-56">
          <mxGeometry relative="1" as="geometry" />
        </mxCell>
        <mxCell id="4Akdkflnh7Jsl9hj940S-47" value="Table A contains deposit not redempted?" style="rhombus;whiteSpace=wrap;html=1;" vertex="1" parent="WIyWlLk6GJQsqaUBKTNV-1">
          <mxGeometry x="265" y="630" width="250" height="190" as="geometry" />
        </mxCell>
        <mxCell id="4Akdkflnh7Jsl9hj940S-56" value="End" style="ellipse;whiteSpace=wrap;html=1;" vertex="1" parent="WIyWlLk6GJQsqaUBKTNV-1">
          <mxGeometry x="60" y="685" width="120" height="80" as="geometry" />
        </mxCell>
        <mxCell id="4Akdkflnh7Jsl9hj940S-61" value="Procedure" style="swimlane;horizontal=0;whiteSpace=wrap;html=1;" vertex="1" parent="WIyWlLk6GJQsqaUBKTNV-1">
          <mxGeometry x="-60" y="980" width="900" height="1120" as="geometry" />
        </mxCell>
        <mxCell id="4Akdkflnh7Jsl9hj940S-25" value="Populate table B with dep_amt, coll_amt, loan_amt, redmp_amt" style="whiteSpace=wrap;html=1;" vertex="1" parent="4Akdkflnh7Jsl9hj940S-61">
          <mxGeometry x="400" y="130" width="120" height="60" as="geometry" />
        </mxCell>
        <mxCell id="4Akdkflnh7Jsl9hj940S-27" value="colletral exist with redmp_amt &amp;gt; 0" style="rhombus;whiteSpace=wrap;html=1;" vertex="1" parent="4Akdkflnh7Jsl9hj940S-61">
          <mxGeometry x="385" y="280" width="150" height="110" as="geometry" />
        </mxCell>
        <mxCell id="4Akdkflnh7Jsl9hj940S-28" value="" style="edgeStyle=orthogonalEdgeStyle;rounded=0;orthogonalLoop=1;jettySize=auto;html=1;" edge="1" parent="4Akdkflnh7Jsl9hj940S-61" source="4Akdkflnh7Jsl9hj940S-25" target="4Akdkflnh7Jsl9hj940S-27">
          <mxGeometry relative="1" as="geometry" />
        </mxCell>
        <mxCell id="4Akdkflnh7Jsl9hj940S-29" value="Delete linkage between coll and loan" style="whiteSpace=wrap;html=1;" vertex="1" parent="4Akdkflnh7Jsl9hj940S-61">
          <mxGeometry x="400" y="440" width="120" height="60" as="geometry" />
        </mxCell>
        <mxCell id="4Akdkflnh7Jsl9hj940S-30" value="" style="edgeStyle=orthogonalEdgeStyle;rounded=0;orthogonalLoop=1;jettySize=auto;html=1;" edge="1" parent="4Akdkflnh7Jsl9hj940S-61" source="4Akdkflnh7Jsl9hj940S-27" target="4Akdkflnh7Jsl9hj940S-29">
          <mxGeometry relative="1" as="geometry" />
        </mxCell>
        <mxCell id="4Akdkflnh7Jsl9hj940S-50" value="Yes" style="edgeLabel;html=1;align=center;verticalAlign=middle;resizable=0;points=[];" vertex="1" connectable="0" parent="4Akdkflnh7Jsl9hj940S-30">
          <mxGeometry x="0.0133" y="-2" relative="1" as="geometry">
            <mxPoint as="offset" />
          </mxGeometry>
        </mxCell>
        <mxCell id="4Akdkflnh7Jsl9hj940S-31" value="close colletral" style="whiteSpace=wrap;html=1;" vertex="1" parent="4Akdkflnh7Jsl9hj940S-61">
          <mxGeometry x="400" y="580" width="120" height="60" as="geometry" />
        </mxCell>
        <mxCell id="4Akdkflnh7Jsl9hj940S-32" value="" style="edgeStyle=orthogonalEdgeStyle;rounded=0;orthogonalLoop=1;jettySize=auto;html=1;" edge="1" parent="4Akdkflnh7Jsl9hj940S-61" source="4Akdkflnh7Jsl9hj940S-29" target="4Akdkflnh7Jsl9hj940S-31">
          <mxGeometry relative="1" as="geometry" />
        </mxCell>
        <mxCell id="4Akdkflnh7Jsl9hj940S-33" value="Create colletral with new amount" style="whiteSpace=wrap;html=1;" vertex="1" parent="4Akdkflnh7Jsl9hj940S-61">
          <mxGeometry x="400" y="720" width="120" height="60" as="geometry" />
        </mxCell>
        <mxCell id="4Akdkflnh7Jsl9hj940S-34" value="" style="edgeStyle=orthogonalEdgeStyle;rounded=0;orthogonalLoop=1;jettySize=auto;html=1;" edge="1" parent="4Akdkflnh7Jsl9hj940S-61" source="4Akdkflnh7Jsl9hj940S-31" target="4Akdkflnh7Jsl9hj940S-33">
          <mxGeometry relative="1" as="geometry" />
        </mxCell>
        <mxCell id="4Akdkflnh7Jsl9hj940S-35" value="create linkage between coll and loan" style="whiteSpace=wrap;html=1;" vertex="1" parent="4Akdkflnh7Jsl9hj940S-61">
          <mxGeometry x="400" y="860" width="120" height="60" as="geometry" />
        </mxCell>
        <mxCell id="4Akdkflnh7Jsl9hj940S-36" value="" style="edgeStyle=orthogonalEdgeStyle;rounded=0;orthogonalLoop=1;jettySize=auto;html=1;" edge="1" parent="4Akdkflnh7Jsl9hj940S-61" source="4Akdkflnh7Jsl9hj940S-33" target="4Akdkflnh7Jsl9hj940S-35">
          <mxGeometry relative="1" as="geometry" />
        </mxCell>
        <mxCell id="4Akdkflnh7Jsl9hj940S-39" style="edgeStyle=orthogonalEdgeStyle;rounded=0;orthogonalLoop=1;jettySize=auto;html=1;entryX=1;entryY=0.5;entryDx=0;entryDy=0;" edge="1" parent="4Akdkflnh7Jsl9hj940S-61" source="4Akdkflnh7Jsl9hj940S-38" target="4Akdkflnh7Jsl9hj940S-27">
          <mxGeometry relative="1" as="geometry">
            <Array as="points">
              <mxPoint x="670" y="335" />
            </Array>
          </mxGeometry>
        </mxCell>
        <mxCell id="4Akdkflnh7Jsl9hj940S-38" value="Increase redempt amount for deposit" style="rounded=0;whiteSpace=wrap;html=1;" vertex="1" parent="4Akdkflnh7Jsl9hj940S-61">
          <mxGeometry x="610" y="540" width="120" height="60" as="geometry" />
        </mxCell>
        <mxCell id="4Akdkflnh7Jsl9hj940S-40" style="edgeStyle=orthogonalEdgeStyle;rounded=0;orthogonalLoop=1;jettySize=auto;html=1;entryX=0.5;entryY=1;entryDx=0;entryDy=0;" edge="1" parent="4Akdkflnh7Jsl9hj940S-61" source="4Akdkflnh7Jsl9hj940S-35" target="4Akdkflnh7Jsl9hj940S-38">
          <mxGeometry relative="1" as="geometry" />
        </mxCell>
        <mxCell id="4Akdkflnh7Jsl9hj940S-41" value="Redempt deposit &lt;br&gt;amount&lt;br&gt;" style="whiteSpace=wrap;html=1;" vertex="1" parent="4Akdkflnh7Jsl9hj940S-61">
          <mxGeometry x="170" y="305" width="120" height="60" as="geometry" />
        </mxCell>
        <mxCell id="4Akdkflnh7Jsl9hj940S-42" value="" style="edgeStyle=orthogonalEdgeStyle;rounded=0;orthogonalLoop=1;jettySize=auto;html=1;" edge="1" parent="4Akdkflnh7Jsl9hj940S-61" source="4Akdkflnh7Jsl9hj940S-27" target="4Akdkflnh7Jsl9hj940S-41">
          <mxGeometry relative="1" as="geometry" />
        </mxCell>
        <mxCell id="4Akdkflnh7Jsl9hj940S-51" value="No" style="edgeLabel;html=1;align=center;verticalAlign=middle;resizable=0;points=[];" vertex="1" connectable="0" parent="4Akdkflnh7Jsl9hj940S-42">
          <mxGeometry x="-0.1111" y="-3" relative="1" as="geometry">
            <mxPoint as="offset" />
          </mxGeometry>
        </mxCell>
        <mxCell id="4Akdkflnh7Jsl9hj940S-43" value="Add status to table C" style="whiteSpace=wrap;html=1;" vertex="1" parent="4Akdkflnh7Jsl9hj940S-61">
          <mxGeometry x="170" y="445" width="120" height="60" as="geometry" />
        </mxCell>
        <mxCell id="4Akdkflnh7Jsl9hj940S-44" value="" style="edgeStyle=orthogonalEdgeStyle;rounded=0;orthogonalLoop=1;jettySize=auto;html=1;" edge="1" parent="4Akdkflnh7Jsl9hj940S-61" source="4Akdkflnh7Jsl9hj940S-41" target="4Akdkflnh7Jsl9hj940S-43">
          <mxGeometry relative="1" as="geometry" />
        </mxCell>
        <mxCell id="4Akdkflnh7Jsl9hj940S-45" value="End" style="ellipse;whiteSpace=wrap;html=1;" vertex="1" parent="4Akdkflnh7Jsl9hj940S-61">
          <mxGeometry x="190" y="575" width="80" height="80" as="geometry" />
        </mxCell>
        <mxCell id="4Akdkflnh7Jsl9hj940S-46" value="" style="edgeStyle=orthogonalEdgeStyle;rounded=0;orthogonalLoop=1;jettySize=auto;html=1;" edge="1" parent="4Akdkflnh7Jsl9hj940S-61" source="4Akdkflnh7Jsl9hj940S-43" target="4Akdkflnh7Jsl9hj940S-45">
          <mxGeometry relative="1" as="geometry" />
        </mxCell>
        <mxCell id="4Akdkflnh7Jsl9hj940S-63" style="edgeStyle=orthogonalEdgeStyle;rounded=0;orthogonalLoop=1;jettySize=auto;html=1;" edge="1" parent="4Akdkflnh7Jsl9hj940S-61" source="4Akdkflnh7Jsl9hj940S-62" target="4Akdkflnh7Jsl9hj940S-25">
          <mxGeometry relative="1" as="geometry" />
        </mxCell>
        <mxCell id="4Akdkflnh7Jsl9hj940S-62" value="Start" style="ellipse;whiteSpace=wrap;html=1;aspect=fixed;" vertex="1" parent="4Akdkflnh7Jsl9hj940S-61">
          <mxGeometry x="425" y="20" width="70" height="70" as="geometry" />
        </mxCell>
        <mxCell id="4Akdkflnh7Jsl9hj940S-70" value="" style="edgeStyle=orthogonalEdgeStyle;rounded=0;orthogonalLoop=1;jettySize=auto;html=1;" edge="1" parent="WIyWlLk6GJQsqaUBKTNV-1" source="4Akdkflnh7Jsl9hj940S-65" target="4Akdkflnh7Jsl9hj940S-69">
          <mxGeometry relative="1" as="geometry" />
        </mxCell>
        <mxCell id="4Akdkflnh7Jsl9hj940S-65" value="Listen for table C for status" style="whiteSpace=wrap;html=1;" vertex="1" parent="WIyWlLk6GJQsqaUBKTNV-1">
          <mxGeometry x="530" y="870" width="120" height="60" as="geometry" />
        </mxCell>
        <mxCell id="4Akdkflnh7Jsl9hj940S-71" style="edgeStyle=orthogonalEdgeStyle;rounded=0;orthogonalLoop=1;jettySize=auto;html=1;entryX=1;entryY=0.5;entryDx=0;entryDy=0;" edge="1" parent="WIyWlLk6GJQsqaUBKTNV-1" source="4Akdkflnh7Jsl9hj940S-69" target="4Akdkflnh7Jsl9hj940S-47">
          <mxGeometry relative="1" as="geometry">
            <Array as="points">
              <mxPoint x="835" y="725" />
            </Array>
          </mxGeometry>
        </mxCell>
        <mxCell id="4Akdkflnh7Jsl9hj940S-69" value="Status changed for last added deposit?" style="rhombus;whiteSpace=wrap;html=1;" vertex="1" parent="WIyWlLk6GJQsqaUBKTNV-1">
          <mxGeometry x="700" y="840" width="270" height="120" as="geometry" />
        </mxCell>
      </root>
    </mxGraphModel>
  </diagram>
</mxfile>
